PathFileType	4	(X/Y/Z)	RBDS026\RBDS026runT45.trc
DataRate	CameraRate	NumFrames	NumMarkers	Units	OrigDataRate	OrigDataStartFrame	OrigNumFrames
150.000000	150.000000	4	33	mm	150.000000	3375	4500
Frame#	Time	L.ASIS			L.Heel.Bottom			L.Heel.Lateral			L.Heel.Top			L.Iliac.Crest			L.MT1			L.MT5			L.PSIS			L.Shank.Bottom.Lateral			L.Shank.Bottom.Medial			L.Shank.Top.Lateral			L.Shank.Top.Medial			L.Thigh.Bottom.Lateral			L.Thigh.Bottom.Medial			L.Thigh.Top.Lateral			L.Thigh.Top.Medial			R.ASIS			R.ASY			R.Heel.Bottom			R.Heel.Lateral			R.Heel.Top			R.Iliac.Crest			R.MT1			R.MT5			R.PSIS			R.Shank.Bottom.Lateral			R.Shank.Bottom.Medial			R.Shank.Top.Lateral			R.Shank.Top.Medial			R.Thigh.Bottom.Lateral			R.Thigh.Bottom.Medial			R.Thigh.Top.Lateral			R.Thigh.Top.Medial			
		X1	Y1	Z1	X2	Y2	Z2	X3	Y3	Z3	X4	Y4	Z4	X5	Y5	Z5	X6	Y6	Z6	X7	Y7	Z7	X8	Y8	Z8	X9	Y9	Z9	X10	Y10	Z10	X11	Y11	Z11	X12	Y12	Z12	X13	Y13	Z13	X14	Y14	Z14	X15	Y15	Z15	X16	Y16	Z16	X17	Y17	Z17	X18	Y18	Z18	X19	Y19	Z19	X20	Y20	Z20	X21	Y21	Z21	X22	Y22	Z22	X23	Y23	Z23	X24	Y24	Z24	X25	Y25	Z25	X26	Y26	Z26	X27	Y27	Z27	X28	Y28	Z28	X29	Y29	Z29	X30	Y30	Z30	X31	Y31	Z31	X32	Y32	Z32	X33	Y33	Z33	

3376	22.5	2283.492720867321	1029.892065240744	915.2155832272352	2006.675775263483	382.6607233497877	984.8476794344799	2039.841224222095	373.7781858776561	933.8565463276698	2051.704494075529	399.6845367724297	986.1233668016844	2196.047902251941	1115.292400721115	870.88379694465	2135.770527294645	196.8334199857168	979.4269999385536	2104.71488804646	244.1872745385802	881.64352932623	2109.430997973553	1079.695674372211	985.4051946743301	2167.790308342372	401.2140398858999	914.3393901227514	2142.163345345446	438.4180904712506	938.188613631628	2229.010972419798	451.2113528926548	895.6734451801871	2205.031326072436	492.0370590298495	919.2239839309403	2399.220259213119	698.1878564533582	871.7235481038753	2345.710385488919	662.7588778693995	906.5911879690805	2329.604501456978	778.611949887582	845.7605785283745	2278.162543210325	743.8926666285981	877.590717250271	2275.98832573859	1007.155393910157	1143.282490871025	1804.121710267501	100.8542630261479	1042.569030862597	1639.618460680397	183.293856282625	1004.10318018543	1666.303750774175	172.4710545027906	1054.713119932659	1673.519039219702	211.3117100217701	1014.567701345765	2238.503327785619	1079.976713047886	1192.00572712446	1814.254223580647	53.14792685249346	984.8950586540693	1764.509744609508	54.46057608632201	1088.777002800936	2115.230688157433	1076.137452747044	1087.423094534595	1764.578085467521	242.0389504617457	1095.314236871424	1735.244802759974	270.4459694480529	1058.248484994727	1795.99635264753	312.387962384085	1121.845585748344	1765.136665163953	338.960153314512	1086.879412137992	2038.443851667704	624.0462558550014	1184.583040147394	1982.842752932886	650.7614034983991	1148.710242662893	2077.169801398502	726.5462553513945	1200.247253020707	2023.206489870051	751.2757606463491	1166.334382665282	
3377	22.50666666666667	2286.47177551398	1035.398716750387	916.452144783909	2026.120754139398	357.284147826165	989.1668030879265	2059.561592342324	350.8519165567121	937.9775557617994	2069.619750626369	377.8752168671185	990.1884742811716	2198.627414908618	1123.162117637411	872.5146941308479	2169.332665972445	182.1943067385002	983.2429290719058	2134.027165672842	226.7874210135581	885.4863414535417	2112.942925097308	1086.123819461784	986.8199367583783	2185.216678578823	388.1519470910579	917.740709438803	2157.30441187931	423.3331433037203	942.0144872728116	2242.613462157224	442.3159765279481	898.6859084978352	2216.117563869882	481.2937000056488	922.7021208570981	2402.590511601386	705.2713957568188	873.5299343800169	2348.519497438783	669.4572904560881	907.0269050536039	2333.179567376974	785.6605744889886	846.9216042622853	2281.359608631572	750.6905040745083	877.7287152825814	2278.972722942893	1009.53767210848	1143.164009867823	1782.662087797202	106.3944815078351	1044.793734146731	1627.69134117289	202.7913850551484	1002.499052899299	1651.752430984333	189.5680438152918	1053.515977578306	1663.527882684608	227.5793931912846	1014.324922611709	2246.578353476816	1083.571486104265	1192.734009338687	1790.038018277111	57.3889167088489	987.0376154822625	1738.139324341014	62.24783575692827	1088.724532393677	2119.244750885121	1081.373436533695	1089.12059507957	1749.918987731686	253.9155025888705	1095.838536526925	1721.963714851188	281.6523429180509	1057.288798920178	1781.524571465234	324.6963453561847	1121.32283964817	1752.173000089157	350.6819536914954	1084.772568119435	2029.14305474261	632.9324074699491	1183.344803161218	1975.069868016407	661.3306498207198	1146.332913675553	2071.040412778816	734.1376905545451	1199.100388339746	2018.652478011405	760.4694445171888	1164.037701719072	
3378	22.51333333333334	2289.2731112412	1040.354874995493	917.8180915761593	2047.0099846075	332.1453336329594	993.9869755417236	2080.449777337691	328.0529242875969	942.5794294354374	2088.70972749062	356.1680455118104	994.6596728918789	2201.259199872272	1130.633715126444	874.0010205345212	2203.491416428904	168.7671008859859	987.608065356572	2163.996312451244	210.0813476242041	889.8573815609788	2116.382810133323	1092.410130860362	987.8581483496876	2203.053598895212	375.0497635260355	921.357744160328	2173.088284906294	408.1191110854306	946.1248571301435	2256.340528642836	433.0563026201191	901.7614860595053	2227.562388105221	470.0785976744822	926.330075580983	2405.080125220112	711.2412711366791	875.0337052739384	2350.408781801571	675.0950708186614	907.0823562664319	2336.008422713508	791.8044623888443	847.9579503301967	2283.793968672165	756.6718458779114	877.7654340654527	2281.401176587049	1011.965082265901	1143.465912969617	1761.519372570677	113.2573217722893	1047.117906846528	1617.360429789228	222.672111276635	1000.003830831626	1638.303379514636	207.3995032554345	1051.555654193628	1654.812163731743	244.1587268694483	1013.394650263149	2253.225252184594	1087.220510935387	1193.212643124271	1766.500131055147	63.02479593777658	989.5504525100589	1712.176563023878	71.83869505790528	1088.545736199245	2122.924984430814	1086.569085191368	1090.378609484731	1736.176027820719	266.105029392087	1096.097493586193	1709.724756339965	293.2289704105112	1056.118541109237	1768.2076692221	337.1585472460745	1120.639181872877	1740.502432912989	362.5971399207329	1082.534539594162	2021.023994713797	641.4293357219983	1182.368271559941	1968.444892869372	671.1340369033384	1144.15020416528	2065.530534554895	741.4731716830674	1198.11226609622	2014.682067366118	769.0712405127819	1161.83427593758	
3379	22.52	2291.829590080998	1044.74582428499	919.2719513984657	2069.238592018997	307.3984880970128	999.2148105487651	2102.447464003894	305.4897875744378	947.5727163401316	2108.891736815611	334.688847605043	999.428984608719	2203.910158555441	1137.50564183863	875.2766634519585	2238.072535803782	156.6182346059352	992.5168483693585	2194.5557271295	194.085529613105	894.7393900068321	2119.670858254885	1098.470084649435	988.5359190378912	2221.250331336648	361.9321267434889	925.1360205629946	2189.456578610978	392.8436593613202	950.4329523655447	2270.178131236554	423.434320338332	904.8490182241081	2239.33920312325	458.4289334184742	930.0204474279749	2406.689301671117	716.0470955642589	876.1964931058633	2351.395895841391	679.6202502867425	906.7562649709198	2338.072840734213	796.9732889737604	848.8492005955786	2285.451759378278	761.7668124987438	877.7141914153375	2283.27780596607	1014.472530700379	1144.129446929936	1740.699803970521	121.5835984658226	1049.3797074549	1608.197451730216	242.7435967999189	996.6771197611406	1625.688709265522	225.8484342496965	1048.865515563597	1646.917493938104	260.9711162607517	1011.754045142691	2258.289374032511	1090.968730136398	1193.490025687056	1743.632774182943	70.18732533355822	992.2657320034647	1686.75837057713	83.31562065926416	1088.20360293015	2126.201509425551	1091.678394054175	1091.237592664642	1723.156499414941	278.6553524871728	1096.001176989274	1698.329966527413	305.2752280938607	1054.683240192643	1755.92853355259	349.7587251884274	1119.739403590446	1729.985024204924	374.7380334570081	1080.159479160554	2014.156049879292	649.3228337960753	1181.657264530201	1962.977958013359	679.972300360855	1142.230955169334	2060.714336592322	748.3797528205034	1197.311345822891	2011.296626511526	776.9267889393022	1159.829135278966	
